<svg version="1.1" xmlns="http://www.w3.org/2000/svg" xmlns:xlink="http://www.w3.org/1999/xlink" x="0px" y="0px" viewBox="0 0 258 155.9" style="enable-background:new 0 0 258 155.9;" xml:space="preserve">
  <style type="text/css">.st0{fill:url(#SVGID_1_);} .st1{fill:url(#SVGID_2_);} .st2{fill:url(#SVGID_3_);} .st3{fill:url(#SVGID_4_);} .st4{fill:url(#SVGID_5_);} .st5{fill:url(#SVGID_6_);} .st6{fill:url(#SVGID_7_);} .st7{fill:url(#SVGID_8_);} .st8{fill:url(#SVGID_9_);} .st9{fill:url(#SVGID_10_);} .st10{fill:url(#SVGID_11_);} .st11{fill:url(#SVGID_12_);} .st12{fill:url(#SVGID_13_);} .st13{fill:url(#SVGID_14_);} .st14{fill:url(#SVGID_15_);} .st15{fill:url(#SVGID_16_);} .st16{fill:url(#SVGID_17_);} .st17{fill:url(#SVGID_18_);} .st18{fill:url(#SVGID_19_);} .st19{fill:url(#SVGID_20_);} .st20{fill:url(#SVGID_21_);} .st21{fill:url(#SVGID_22_);} .st22{fill:#0081CC;} .st23{fill:#6FBA2C;} .st24{fill:url(#SVGID_23_);} .st25{fill:url(#SVGID_24_);} .st26{fill:url(#SVGID_25_);} .st27{fill:url(#SVGID_26_);} .st28{fill:url(#SVGID_27_);} .st29{fill:url(#SVGID_28_);} .st30{fill:url(#SVGID_29_);} .st31{fill:url(#SVGID_30_);} .st32{fill:url(#SVGID_31_);} .st33{fill:url(#SVGID_32_);} .st34{fill:url(#SVGID_33_);} .st35{fill:url(#SVGID_34_);} .st36{fill:url(#SVGID_35_);} .st37{fill:url(#SVGID_36_);} .st38{fill:url(#SVGID_37_);} .st39{fill:url(#SVGID_38_);} .st40{fill:url(#SVGID_39_);} .st41{fill:url(#SVGID_40_);} .st42{fill:url(#SVGID_41_);} .st43{fill:url(#SVGID_42_);} .st44{fill:url(#SVGID_43_);} .st45{fill:url(#SVGID_44_);} .st46{fill:none;} .st47{fill:#231815;} .st48{font-family:'UDShinGoPr6N-Regular';} .st49{font-size:13px;} .st50{letter-spacing:1;} .st51{fill:#5D5959;} .st52{font-size:5.5px;} .st53{clip-path:url(#SVGID_46_);fill:#231815;}</style>
  <g id="background">
    <g>
      <g>
        <linearGradient id="SVGID_1_" gradientUnits="userSpaceOnUse" x1="189.6947" y1="137.687" x2="263.7667" y2="137.687">
          <stop offset="0.1847" style="stop-color:#0081CC"></stop>
          <stop offset="0.699" style="stop-color:#6FBA2C"></stop>
        </linearGradient>
        <path class="st0" d="M238.2,150l7.5-2.5h-4.4l-7.5,2.5h-4.4l7.5-2.5h-4.4L225,150h-4.4l7.5-2.5h-4.4l-7.5,2.5h-4.4l7.5-2.5h-3.6 c0.9-0.3,1.9-0.6,2.9-0.9c1.5-0.5,3.1-1,4.6-1.6h3.8l7.7-2.5h-4.4c6-2.2,11.3-4.3,14.6-5.9c4.5-2.1,6.5-3.7,6-4.7 c-1.2-2.1-12.6,0-18.1,1.2c0-0.1,0-0.1-0.1-0.2c0,0-0.3-0.2-0.4-0.3c0,0,0,0,0,0c0.1,0,0.4-0.2,0.6-0.3c0.2-0.2,0.3-0.4,0.2-0.6 c-0.1-0.2-0.4-0.3-0.6-0.2c-0.3,0.2-0.7,0.7-0.8,0.8c0,0,0,0,0,0c0,0,0-0.1,0-0.2c0,0,0,0,0,0c0.2-0.3,0.2-0.7,0.2-1 c0-0.4-0.2-0.5-0.4-0.4c-0.3,0.1-0.6,0.2-0.7,0.3c0,0-0.1,0-0.1,0c-0.1-0.1-0.2-0.1-0.2-0.1c0,0,0,0,0-0.1 c0.1-0.1,0.2-0.2,0.2-0.3c0.1-0.2,0.1-0.3,0.1-0.4c0,0,0-0.1,0-0.1c0.1,0,0.3-0.1,0.4-0.1c0,0,0,0,0,0c0.1-0.1,0.2-0.3,0.3-0.4 c0.3-0.6,0.4-1,0.4-1s0.2-0.1,0.2-0.4c0.1-0.3,0.1-0.4,0-0.5c0.2-0.2,0.3-0.6,0.4-0.7c0,0,0,0,0,0c0,0,0.2,0,0.3,0 c0.1,0,0.2-0.1,0.2-0.2c0,0,0,0,0,0c0,0,0.2,0,0.3-0.1c0.1-0.1,0.1-0.2,0.1-0.2c0,0,0,0,0,0c0.1-0.1,0.1-0.2,0-0.4c0,0,0,0,0,0 c0.1-0.4-0.2-0.5-0.4-0.4c0,0,0,0,0,0c0.1-0.2,0.2-0.3,0.2-0.5c0-0.2,0-0.4-0.1-0.4c-0.1-0.1-0.2,0-0.3,0.1 c-0.1,0.1,0,0.3-0.1,0.7c-0.1,0.3-0.2,0.4-0.4,0.5c0,0,0,0,0,0c-0.2-0.1-0.2-0.2-0.4-0.3c-0.1-0.1-0.3-0.1-0.3,0 c-0.1,0.1,0,0.2,0.1,0.3c0.1,0,0.2,0.2,0.3,0.2c0,0,0,0,0,0c0,0.1,0.1,0.3,0.1,0.4c0,0.2,0,0.4,0,0.5c0,0.1-0.1,0.2-0.2,0.3 c0,0,0,0,0,0c0-0.1-0.1-0.2-0.2-0.2c0,0,0,0,0,0c-0.1-0.1-0.2-0.3-0.3-0.5c0,0,0,0,0,0c0,0,0.1-0.1,0.1-0.2c0-0.1,0-0.2,0-0.2 c-0.1-0.1-0.3-0.1-0.4-0.2c0,0,0,0,0,0c0-0.1-0.1-0.4-0.3-0.5c-0.2-0.1-0.5-0.1-0.7-0.1s-0.4,0-0.5,0.2c-0.1,0.1-0.3,0.3-0.4,0.3 c-0.1,0.1-0.4,0.1-0.6,0.2c-0.2,0-0.4,0.1-0.6,0.3c-0.2,0.1-0.5,0.7-0.5,1c0,0.3,0,0.5,0,0.6c0,0,0,0.1,0,0.1c0,0,0,0.1,0,0.1 c0,0.2,0,0.3,0,0.5c0,0.2,0.1,0.3,0.1,0.4c0,0,0,0,0,0c-0.1,0.6,0.4,0.9,0.6,1c0.2,0.1,0.4,0.2,0.6,0.2c0,0,0,0,0,0 c-0.2,0.1-0.3,0.3-0.4,0.4c-0.1,0.1-0.2,0.3-0.3,0.3c0,0,0,0,0,0c0,0-0.1,0-0.1,0.1c0,0-0.1,0.1-0.1,0.2c0,0,0,0,0,0.1 c-0.1,0.1-0.2,0.2-0.4,0.4c-0.2,0.2-0.3,0.4-0.3,0.5c0,0,0,0-0.1,0c-0.1,0-0.6,0.2-0.9,0.3c-0.3,0.1-0.3,0.3-0.3,0.3 s-0.3-0.1-0.4-0.1c-0.2,0-0.2,0,0,0.1c0.1,0,1.4,0.7,1.4,0.7c0,0-0.8-0.2-1.3-0.5c-0.1-0.1-0.4-0.2,0,0.2c0.3,0.3,1,0.6,1,0.6 c0,0-0.2,0-0.4,0c-0.3,0,0.1,0.1,0.5,0.3c0.7,0.2,1.8,0.4,2.7,0.4c0.6,0,1.2-0.3,1.7-0.6c4.7-1,17.8-3.7,18.5-1.4 c0.7,2.3-17.5,8.6-27.7,11.8c1-0.8,1.4-2.8,0.7-4.7c-0.8-2.3-2.6-3.7-4.1-3.2c-1.5,0.5-2.1,2.8-1.3,5.1c0.6,1.9,2,3.2,3.4,3.3 c-1.1,0.3-2,0.6-2.8,0.9c-1.6,0.5-3.4,1-5.3,1.6c0.3-0.3,0.6-0.5,0.8-0.7c0.7-0.7,1.1-1.3,1.5-2.2c0.3-0.6,0.5-1.7,0.2-2.5 c-0.1-0.2-0.2-0.3-0.4-0.4c-0.2-0.1-0.6,0-0.9,0.1c-0.5,0.2-1.2,0.6-1.8,1c-0.6,0.4-1.3,0.9-1.7,1.1c-0.2,0.1-0.5,0.2-0.5,0.2 s0.1-0.3-0.1-0.6c-0.2-0.2-0.6-0.1-0.6-0.1s-0.1-0.1-0.1-0.1c0,0,0-0.1,0-0.2c0-0.1,0-0.3-0.1-0.3c-0.3-0.4-1.1,0.2-1.3,0.4 c-0.2-0.2-1.8-1.6-2.3-2c-0.2-0.2-1.5-1.4-2-1.8c0.4-0.1,0.7-0.2,0.9-0.3c0.6-0.4,1.1-0.7,1.5-1.3c0.1-0.1,0.2-0.4,0.2-0.4 s0.2,0.2,0.3,0.2c0.2,0.1,0.4,0.3,0.6,0.3c0.6,0.2,1.5,0.3,2.3,0.3c0.2,0.3,0.7,1.1,1.3,1c0.2,0,0.3-0.2,0.4-0.3 c0.4,0.1,0.9,0,1.1-0.3c0.2,0,0.3,0.1,0.6,0.1c0.3,0,0.5-0.1,0.7-0.2c0.1-0.1,0.4-0.2,0.4-0.2s0,0.2,0.4,0.3 c0.2,0,0.7-0.4,0.9-0.7c0.2-0.4,0.2-0.8,0.2-1.1c-0.2-0.5-0.4-0.6-0.4-0.7c0,0,0.1-0.2,0-0.5c-0.1-0.3-0.3-0.4-0.7-0.6 c0-0.2,0.1-0.3,0-0.4c-0.1-0.3-0.5-0.5-0.6-0.5c-0.2-0.1-0.6,0.1-1,0.2c-0.4,0.2-1.1,0.7-1.4,1.1c-0.3,0.4-0.7,0.8-0.7,0.8 s-0.3-0.2-0.7-0.1c-0.4,0.1-0.5,0.6-0.5,1.1c-0.3,0-0.6,0-1,0c-0.2,0-0.5,0-0.7-0.1c-0.2-0.1-0.5-0.2-0.8-0.4 c-0.2-0.1-0.5-0.3-0.5-0.3s-0.1-0.2-0.2-0.4c-0.1-0.2-0.3-0.3-0.3-0.3s0.4,0.1,0.8,0.2c0.3,0,0.9,0.1,1.4,0 c0.5-0.1,1.1-0.3,1.4-0.8c0.5,0.2,1.2,0.1,1.5-0.1c0.1-0.1,0.3-0.2,0.3-0.4c0-0.2-0.2-0.2-0.5-0.2c-0.2,0.1-0.4,0.1-0.6,0.2 c-0.2,0.1-0.4,0.1-0.6,0.1c0,0,0-0.1-0.1-0.1c0,0,0.1-0.1,0.1-0.2c0.1-0.1,0.1-0.2,0.1-0.2s0.1,0,0.2,0c0.2,0,0.4-0.3,0.5-0.5 c0.2-0.3,0.4-1.1,0.4-1.6c0.1-1.3-0.2-2.2-0.6-3c-0.1-0.1-0.2-0.4-0.2-0.4s0.3-0.9,0.4-1.4c0-0.4,0.1-0.6-0.1-0.7 c-0.3-0.2-1.2,0-1.5,0.1c-0.1,0-0.3,0.1-0.4,0.1c-0.6-0.4-1.5-0.9-2.7-1.4c-0.9-0.4-1.9-0.8-3.2-1c-1.5-0.2-2.7-0.2-3.9,0 c-1.3,0.3-2.1,0.8-2.1,0.8s0.6,0.3,0.8,0.4c0.4,0.2,0.9,0.6,0.9,0.6s-1.5,0.3-3,1.5c-1.6,1.2-2.2,2.9-2.2,2.9s1.7-0.3,2.6-0.4 c0.9-0.1,1.9,0,1.9,0s-0.7,0.1-1.9,1.1c-1,0.8-1.5,2.1-1.5,2.1s1.3-0.3,2.4-0.1c0.9,0.1,1.3,0.3,1.3,0.3s-0.2,0-0.3,0.3 c-0.8,0-1.3,0.1-1.9,0.3c-0.5,0.2-0.7,0.5-0.8,1c0,0.2,0,0.3,0,0.5c-0.1,0.1-0.1,0.3-0.1,0.5c0.1,0.2,0.2,0.3,0.2,0.3 s0,0.2,0.1,0.4c0.1,0.1,0.2,0.2,0.2,0.2s0,0.1,0.1,0.2c0.1,0.1,0.1,0.1,0.1,0.1c-0.1,0-0.2,0.1-0.3,0.1c-0.1-0.2-0.5-0.7-1.2-1.2 c-0.6-0.4-1.6-0.8-2.3-0.5c-0.8,0.3-1.2,1-1.7,2.1c-0.5,1.1-0.8,2-1,3.2c-0.1,0.7-0.1,1.8,0.1,2.3c0.2,0.7,0.4,1.7,1.2,1.8 c0.2,0,0.7-0.1,1.1-0.3c0.3-0.2,0.7-0.6,0.8-0.9c0.4-0.5,0.8-1.5,1-2c0.2-0.5,0.8-1,0.9-1c0.1,0.3,0.5,0.3,0.8,0.2 c0,0.1,0.1,0.2,0.2,0.3c0.2,0.2,0.4,0.3,0.6,0.2c0.4-0.1,0.7-0.5,1-0.8c0.7,0.3,1.3,0.7,2.1,0.9c0.5,0.1,1.1-0.1,1.4-0.3 c0.4-0.3,0.8-0.6,1.1-0.9c0.1-0.1,0.2-0.2,0.4-0.3c0.2-0.2,0.4-0.4,0.6-0.7c0.2,0.2,2.1,2.2,2.2,2.3c0.6,0.6,2.1,2.2,2.3,2.4 c0,0-0.4,0.4-0.5,0.7c-0.1,0.2,0,0.5,0.1,0.7c0.1,0.1,0.3,0.2,0.5,0.2c0,0.3,0.2,0.5,0.4,0.6c0.1,0.1,0.3,0.1,0.5,0 c0,0,0.1,0.4,0.3,0.9c0.2,0.5,0.3,0.9,0.5,1.2c0,0,0.1,0.1,0.1,0.1c-2.3,0.6-4.6,1.3-6.6,1.8h-15.4l-0.9,2h70.3l0.9-2h-0.6 l7.8-2.6l-5,0.2l-7.2,2.4h-4.4l7.5-2.5h-4.4l-7.5,2.5H238.2z M231.2,129.2c0,0,0-0.2,0-0.2c0,0,0,0,0.1,0 C231.3,129.1,231.2,129.3,231.2,129.2z M231.2,127.7c0-0.1,0.1-0.4,0.2-0.3c0.1,0.1,0.2,0.3,0.2,0.5c0,0.2-0.1,0.5-0.2,0.6 c-0.1,0.1-0.1,0.1-0.2,0.2c0,0-0.1,0-0.1,0C231.2,128.4,231.2,128,231.2,127.7z M231,129.2C231,129.2,231,129.2,231,129.2 c0.1,0,0.1,0.1,0.1,0.1c0,0-0.1,0.1-0.1,0.1S230.9,129.3,231,129.2z M229.2,128.6c0.1-0.2,0.4-0.3,0.8-0.1 c0.2,0.1,0.4,0.3,0.5,0.5c0.1,0.1,0.1,0.2,0.1,0.2c0,0-0.2,0.1-0.3,0.2c-0.1,0-0.4,0.1-0.7,0 C229.3,129.1,229.2,128.8,229.2,128.6z M218.3,140.8c-0.5-1.5-0.2-2.9,0.6-3.2c0.8-0.3,1.9,0.7,2.4,2.2c0.5,1.5,0.2,2.9-0.6,3.2 C219.9,143.3,218.8,142.3,218.3,140.8z M201.4,136.6c-0.1,0.2-0.3,0.3-0.4,0.5c-0.3,0.2-1,0.2-1.5,0.1c-0.3-0.1-0.6-0.1-0.9-0.2 c0,0,0.4,0.5,0.9,0.8c0.6,0.3,0.9,0.4,1.2,0.4c0,0,0,0,0,0c-0.1,0.1-0.3,0.3-0.5,0.5c-0.4,0.3-0.6,0.6-1,0.9 c-0.2,0.1-0.5,0.3-0.7,0.2c-0.3-0.1-0.7-0.3-1-0.5c-0.1-0.1-0.6-0.4-0.7-0.5c0.1-0.5,0.1-1.1-0.1-1.4c-0.2-0.2-0.5-0.4-0.8-0.4 c0,0,0,0,0.1,0c0.1,0,0.3-0.2,0.4-0.3c0,0,0,0,0,0c0.1,0.3,0.6,0.5,0.9,0.3c0.5-0.3,0.6-0.9,0.6-1.7c0.2,0.3,0.4,0,0.4,0 c0.4,0.2,0.7,0,0.8-0.3c0-0.1,0-0.2,0.1-0.4c0.2,0,0.4,0,0.6,0.1c-0.3,0.2-0.7,0.6-0.9,1c-0.1,0.2-0.3,0.4-0.3,0.6 c0,0.1,0,0.1,0.1,0.1c0.2-0.1,0.8-0.2,1.3-0.3c0.6-0.1,1.1-0.1,1.5,0c0.2,0,0.3,0.1,0.4,0.2C201.7,136.2,201.6,136.5,201.4,136.6 z"></path>
        <linearGradient id="SVGID_2_" gradientUnits="userSpaceOnUse" x1="189.4172" y1="135.5367" x2="258.7527" y2="135.5367">
          <stop offset="0.1847" style="stop-color:#0081CC"></stop>
          <stop offset="0.699" style="stop-color:#6FBA2C"></stop>
        </linearGradient>
        <polygon class="st1" points="249.7,136.4 249.7,134.7 249.6,134.3 248.6,135.1 248.8,135.6 249.3,135.2 249.2,136.7"></polygon>
        <linearGradient id="SVGID_3_" gradientUnits="userSpaceOnUse" x1="189.4172" y1="136.8689" x2="258.7527" y2="136.8689">
          <stop offset="0.1847" style="stop-color:#0081CC"></stop>
          <stop offset="0.699" style="stop-color:#6FBA2C"></stop>
        </linearGradient>
        <polygon class="st2" points="247.8,137.9 248.1,135.9 248,135.5 246.6,136.2 246.7,136.8 247.4,136.4 247.1,138.3"></polygon>
        <linearGradient id="SVGID_4_" gradientUnits="userSpaceOnUse" x1="135.0029" y1="141.2394" x2="264.3878" y2="141.2394">
          <stop offset="0.1847" style="stop-color:#0081CC"></stop>
          <stop offset="0.699" style="stop-color:#6FBA2C"></stop>
        </linearGradient>
        <polygon class="st3" points="264.3,140 259.9,140 252.2,142.5 256.7,142.5"></polygon>
        <linearGradient id="SVGID_5_" gradientUnits="userSpaceOnUse" x1="189.4172" y1="143.7463" x2="258.7527" y2="143.7463">
          <stop offset="0.1847" style="stop-color:#0081CC"></stop>
          <stop offset="0.699" style="stop-color:#6FBA2C"></stop>
        </linearGradient>
        <polygon class="st4" points="244.6,145 252.2,142.5 247.8,142.5 240.2,145"></polygon>
        <linearGradient id="SVGID_6_" gradientUnits="userSpaceOnUse" x1="189.4172" y1="143.7463" x2="258.7527" y2="143.7463">
          <stop offset="0.1847" style="stop-color:#0081CC"></stop>
          <stop offset="0.699" style="stop-color:#6FBA2C"></stop>
        </linearGradient>
        <polygon class="st5" points="231.3,145 235.8,145 243.4,142.5 239,142.5"></polygon>
        <linearGradient id="SVGID_7_" gradientUnits="userSpaceOnUse" x1="189.4172" y1="146.2589" x2="258.7527" y2="146.2589">
          <stop offset="0.1847" style="stop-color:#0081CC"></stop>
          <stop offset="0.699" style="stop-color:#6FBA2C"></stop>
        </linearGradient>
        <polygon class="st6" points="250.2,147.5 257.9,145 253.4,145 245.8,147.5"></polygon>
        <linearGradient id="SVGID_8_" gradientUnits="userSpaceOnUse" x1="189.4172" y1="146.2589" x2="258.7527" y2="146.2589">
          <stop offset="0.1847" style="stop-color:#0081CC"></stop>
          <stop offset="0.699" style="stop-color:#6FBA2C"></stop>
        </linearGradient>
        <polygon class="st7" points="241.4,147.5 249,145 244.6,145 236.9,147.5"></polygon>
        <linearGradient id="SVGID_9_" gradientUnits="userSpaceOnUse" x1="-415.9991" y1="143.7463" x2="266.7358" y2="143.7463">
          <stop offset="0.1847" style="stop-color:#0081CC"></stop>
          <stop offset="0.699" style="stop-color:#6FBA2C"></stop>
        </linearGradient>
        <polygon class="st8" points="264.7,142.5 257.9,145 262.3,145 266.2,143.4 266.2,142.5"></polygon>
        <linearGradient id="SVGID_10_" gradientUnits="userSpaceOnUse" x1="189.4172" y1="146.2589" x2="258.7527" y2="146.2589">
          <stop offset="0.1847" style="stop-color:#0081CC"></stop>
          <stop offset="0.699" style="stop-color:#6FBA2C"></stop>
        </linearGradient>
        <polygon class="st9" points="232.5,147.5 240.2,145 235.8,145 228.1,147.5"></polygon>
        <linearGradient id="SVGID_11_" gradientUnits="userSpaceOnUse" x1="174.7317" y1="143.7463" x2="261.1534" y2="143.7463">
          <stop offset="0.1847" style="stop-color:#0081CC"></stop>
          <stop offset="0.699" style="stop-color:#6FBA2C"></stop>
        </linearGradient>
        <polygon class="st10" points="261.1,142.5 258.7,142.5 256.7,142.5 249,145 253.4,145"></polygon>
        <linearGradient id="SVGID_12_" gradientUnits="userSpaceOnUse" x1="177.9163" y1="139.5331" x2="264.9136" y2="139.5331">
          <stop offset="0.1847" style="stop-color:#0081CC"></stop>
          <stop offset="0.699" style="stop-color:#6FBA2C"></stop>
        </linearGradient>
        <polygon class="st11" points="251.1,140 258.7,137.5 254.3,137.5 246.6,140 245.2,140 246,137.2 245.9,136.6 243.8,137.5 243.9,138.3 244.9,137.9 244.3,140 242.2,140 242.2,140 234.6,142.5 239,142.5 246.6,140 251,140 243.4,142.5 247.8,142.5 255.5,140 258.7,140 264.8,137.5 261.8,137.5 255.5,140"></polygon>
        <linearGradient id="SVGID_13_" gradientUnits="userSpaceOnUse" x1="69.6173" y1="146.2589" x2="266.3562" y2="146.2589">
          <stop offset="0.1847" style="stop-color:#0081CC"></stop>
          <stop offset="0.699" style="stop-color:#6FBA2C"></stop>
        </linearGradient>
        <polygon class="st12" points="262.3,145 254.6,147.5 258.7,147.5 266.2,145"></polygon>
        <linearGradient id="SVGID_14_" gradientUnits="userSpaceOnUse" x1="189.4172" y1="146.2589" x2="258.7527" y2="146.2589">
          <stop offset="0.1847" style="stop-color:#0081CC"></stop>
          <stop offset="0.699" style="stop-color:#6FBA2C"></stop>
        </linearGradient>
        <polygon class="st13" points="226.9,145 219.3,147.5 223.7,147.5 231.3,145"></polygon>
        <linearGradient id="SVGID_15_" gradientUnits="userSpaceOnUse" x1="189.4172" y1="138.6899" x2="258.7527" y2="138.6899">
          <stop offset="0.1847" style="stop-color:#0081CC"></stop>
          <stop offset="0.699" style="stop-color:#6FBA2C"></stop>
        </linearGradient>
        <path class="st14" d="M228.4,141.7c0.8-0.7,0.3-2.6-1.1-4.2c-1.4-1.7-3.2-2.5-4-1.8c-0.8,0.7-0.3,2.6,1.1,4.2 C225.8,141.6,227.6,142.4,228.4,141.7z M224.3,136.9c0.3-0.2,1.2,0.4,2,1.4c0.8,1,1.3,2,1,2.2c-0.3,0.2-1.2-0.4-2-1.4 C224.5,138.1,224.1,137.1,224.3,136.9z"></path>
        <linearGradient id="SVGID_16_" gradientUnits="userSpaceOnUse" x1="189.4172" y1="137.7382" x2="258.7527" y2="137.7382">
          <stop offset="0.1847" style="stop-color:#0081CC"></stop>
          <stop offset="0.699" style="stop-color:#6FBA2C"></stop>
        </linearGradient>
        <path class="st15" d="M234.2,139.4c0.3-0.6-0.8-1.8-2.6-2.7c-1.7-0.9-3.4-1.1-3.7-0.5c-0.3,0.6,0.8,1.8,2.6,2.7 C232.2,139.7,233.9,140,234.2,139.4z M229.4,136.9c0.1-0.1,0.9,0.1,1.8,0.6c0.9,0.5,1.6,1,1.5,1.1c-0.1,0.1-0.9-0.1-1.8-0.6 C230,137.5,229.3,137,229.4,136.9z"></path>
        <linearGradient id="SVGID_17_" gradientUnits="userSpaceOnUse" x1="189.4172" y1="135.528" x2="258.7527" y2="135.528">
          <stop offset="0.1847" style="stop-color:#0081CC"></stop>
          <stop offset="0.699" style="stop-color:#6FBA2C"></stop>
        </linearGradient>
        <path class="st16" d="M251.5,135.1c-0.3,0.8-0.2,1.7,0.4,1.9c0.5,0.2,1.3-0.3,1.6-1.1s0.2-1.7-0.4-1.9S251.8,134.3,251.5,135.1z M253,135.7c-0.2,0.5-0.6,0.9-0.9,0.8c-0.3-0.1-0.4-0.7-0.1-1.2c0.2-0.5,0.6-0.9,0.9-0.8S253.2,135.2,253,135.7z"></path>
        <linearGradient id="SVGID_18_" gradientUnits="userSpaceOnUse" x1="189.4172" y1="132.1819" x2="258.7527" y2="132.1819">
          <stop offset="0.1847" style="stop-color:#0081CC"></stop>
          <stop offset="0.699" style="stop-color:#6FBA2C"></stop>
        </linearGradient>
        <path class="st17" d="M252.2,133.6c0.4,0.1,0.8-0.5,1-1.3c0.2-0.8,0-1.5-0.4-1.6c-0.4-0.1-0.8,0.5-1,1.3 C251.6,132.8,251.8,133.5,252.2,133.6z M252.2,132.1c0.1-0.5,0.3-0.8,0.4-0.8c0.1,0,0.2,0.4,0.1,0.9c-0.1,0.5-0.3,0.8-0.4,0.8 C252.2,133,252.1,132.6,252.2,132.1z"></path>
        <linearGradient id="SVGID_19_" gradientUnits="userSpaceOnUse" x1="189.4172" y1="129.7111" x2="258.7527" y2="129.7111">
          <stop offset="0.1847" style="stop-color:#0081CC"></stop>
          <stop offset="0.699" style="stop-color:#6FBA2C"></stop>
        </linearGradient>
        <path class="st18" d="M251.6,130.9c0.2-0.1,0.1-0.7-0.3-1.4c-0.4-0.6-0.8-1-1.1-0.9c-0.2,0.1-0.1,0.7,0.3,1.4 C250.9,130.6,251.4,131,251.6,130.9z M250.6,129.1c0,0,0.2,0.2,0.4,0.6c0.2,0.3,0.3,0.6,0.3,0.7c0,0-0.2-0.2-0.4-0.6 S250.6,129.1,250.6,129.1z"></path>
        <linearGradient id="SVGID_20_" gradientUnits="userSpaceOnUse" x1="189.4172" y1="129.3862" x2="258.7527" y2="129.3862">
          <stop offset="0.1847" style="stop-color:#0081CC"></stop>
          <stop offset="0.699" style="stop-color:#6FBA2C"></stop>
        </linearGradient>
        <path class="st19" d="M241.2,130.7c0.4,0.3,1-0.1,1.3-0.8c0.4-0.7,0.4-1.5,0-1.8c-0.4-0.3-1,0.1-1.3,0.8 C240.8,129.6,240.8,130.4,241.2,130.7z M241.5,129.1c0.2-0.5,0.6-0.7,0.8-0.6c0.2,0.1,0.2,0.6-0.1,1.1s-0.6,0.7-0.8,0.6 S241.3,129.6,241.5,129.1z"></path>
        <linearGradient id="SVGID_21_" gradientUnits="userSpaceOnUse" x1="189.4172" y1="130.9384" x2="258.7527" y2="130.9384">
          <stop offset="0.1847" style="stop-color:#0081CC"></stop>
          <stop offset="0.699" style="stop-color:#6FBA2C"></stop>
        </linearGradient>
        <path class="st20" d="M236.5,131.5c0.7,0.1,1.3,0,1.4-0.3c0.1-0.3-0.4-0.7-1.2-0.9s-1.3,0-1.4,0.3 C235.3,131,235.8,131.4,236.5,131.5z M236.7,130.7c0.4,0.1,0.7,0.2,0.7,0.4s-0.4,0.1-0.8,0.1s-0.7-0.2-0.7-0.4 C235.9,130.7,236.2,130.6,236.7,130.7z"></path>
        <linearGradient id="SVGID_22_" gradientUnits="userSpaceOnUse" x1="189.4172" y1="129.6285" x2="258.7527" y2="129.6285">
          <stop offset="0.1847" style="stop-color:#0081CC"></stop>
          <stop offset="0.699" style="stop-color:#6FBA2C"></stop>
        </linearGradient>
        <path class="st21" d="M239.4,130c0.5-0.4,0.9-0.8,0.7-1c-0.1-0.2-0.7-0.1-1.2,0.3s-0.9,0.8-0.7,1 C238.3,130.5,238.8,130.3,239.4,130z M239.1,129.6c0.3-0.2,0.5-0.3,0.6-0.3c0,0-0.2,0.2-0.5,0.4c-0.3,0.2-0.5,0.3-0.6,0.3 C238.6,129.9,238.8,129.7,239.1,129.6z"></path>
      </g>
      <g>
        <polygon class="st22" points="-8.8,150 -8.8,164.2 124.8,164.7 131.1,150"></polygon>
        <g>
          <polygon class="st23" points="124.8,164.7 266.2,164.2 266.2,150 131.1,150"></polygon>
        </g>
      </g>
    </g>
    <g>
      <g>
        <g>
          <rect x="191.5" y="9.6" class="st46" width="56.7" height="18.3"></rect>
        </g>
        <g>
          <g>
            <path class="st47" d="M207.4,22.3h0.5v1.5h1.9v-1.5h0.5v3.5h-0.5v-1.6h-1.9v1.6h-0.5V22.3z"></path>
            <path class="st47" d="M210.8,24.1c0-1,0.7-1.8,1.8-1.8c1.1,0,1.8,0.8,1.8,1.8c0,1-0.7,1.8-1.8,1.8 C211.5,25.9,210.8,25.1,210.8,24.1z M213.9,24.1c0-0.8-0.5-1.4-1.3-1.4c-0.9,0-1.3,0.6-1.3,1.4c0,0.8,0.5,1.4,1.3,1.4 C213.4,25.5,213.9,24.9,213.9,24.1z"></path>
            <path class="st47" d="M214.9,22.3h0.5v3.1h1.9v0.4h-2.4V22.3z"></path>
            <path class="st47" d="M217.7,22.3h1.3c1.1,0,1.6,0.7,1.6,1.7c0,1-0.6,1.7-1.7,1.7h-1.3V22.3z M219,25.4c0.9,0,1.2-0.5,1.2-1.3 c0-0.8-0.3-1.4-1.2-1.4h-0.9v2.7H219z"></path>
            <path class="st47" d="M221.2,22.3h0.5v3.5h-0.5V22.3z"></path>
            <path class="st47" d="M222.4,22.3h0.5l1.7,2.4c0.1,0.2,0.3,0.4,0.3,0.4h0v-2.9h0.4v3.5h-0.5l-1.7-2.4c-0.1-0.2-0.3-0.4-0.3-0.4 h0v2.9h-0.4V22.3z"></path>
            <path class="st47" d="M228.7,25.3L228.7,25.3c-0.3,0.4-0.7,0.5-1.1,0.5c-1,0-1.7-0.7-1.7-1.8c0-1,0.6-1.8,1.8-1.8 c0.8,0,1.4,0.4,1.5,1.1h-0.5c-0.1-0.5-0.4-0.7-1-0.7c-0.9,0-1.3,0.6-1.3,1.4c0,0.8,0.5,1.4,1.3,1.4c0.7,0,1.1-0.5,1.1-1.1v-0.1 h-1.1V24h1.6v1.8h-0.3L228.7,25.3z"></path>
            <path class="st47" d="M229.5,24.6h0.4c0.1,0.6,0.4,0.9,1.1,0.9c0.5,0,0.9-0.2,0.9-0.7c0-0.5-0.4-0.6-1.1-0.7 c-0.6-0.1-1.2-0.3-1.2-1c0-0.6,0.5-0.9,1.2-0.9c0.9,0,1.3,0.4,1.4,1.1h-0.4c-0.1-0.5-0.4-0.7-0.9-0.7c-0.5,0-0.8,0.2-0.8,0.6 c0,0.4,0.4,0.5,1,0.6c0.7,0.1,1.4,0.3,1.4,1.1c0,0.7-0.6,1-1.3,1C230,25.9,229.5,25.3,229.5,24.6z"></path>
          </g>
        </g>
      </g>
      <g>
        <g>
          <g>
            <g>
              <polygon class="st22" points="198.7,19 198.1,20.4 218.9,20.4 219.5,19"></polygon>
              <g>
                <polygon class="st23" points="218.9,20.4 239.8,20.4 240.4,19 219.5,19"></polygon>
              </g>
            </g>
            <path class="st47" d="M244.8,12.5l-1.2,3.9l-1.3-3.9h-1.9l0.3,0.7h0c-0.3-0.5-0.8-0.8-1.5-0.8c-1.3,0-1.7,0.9-1.7,0.9h0 c-0.2-0.5-0.8-0.9-1.6-0.9c-1.3,0-1.7,0.9-1.7,0.9h0c-0.2-0.5-0.8-0.9-1.6-0.9c-1.3,0-1.7,0.9-1.7,0.9 c-0.2-0.5-0.7-0.9-1.6-0.9c-1,0-1.5,0.8-1.6,0.9v-0.8h-1.8v5.1c-0.1-0.1-0.4-0.3-0.4-1.2v-2.1c0-1.4-1-1.9-2.5-1.9 c-1.4,0-2.3,0.6-2.5,1.7h1.7c0,0,0.1-0.5,0.7-0.5c0.4,0,0.6,0.2,0.6,0.5c0,0.3-0.1,0.4-0.5,0.5c-0.3,0.1-1.1,0.1-1.8,0.4 c-0.4,0.1-0.6,0.3-0.8,0.5c-0.1-0.4-0.3-0.7-0.7-1c-0.6-0.4-1.7-0.6-2.4-0.8c-0.8-0.2-0.8-0.4-0.8-0.6c0-0.2,0.2-0.5,0.9-0.5 c0.9,0,0.9,0.6,0.9,0.6h1.9c-0.1-0.9-0.8-1.8-2.8-1.8c-2.4,0-2.8,1.2-2.8,1.9c0,0.6,0.3,1.1,0.8,1.4c0.5,0.3,1.7,0.6,2.4,0.7 c0.7,0.2,0.7,0.5,0.7,0.6c0,0.2-0.2,0.6-1,0.6c-1.1,0-1.2-0.8-1.2-0.8h-1.7l-1.4-3.5h-2.4l-1.3,3.5v-1.4h-2.7v1.1h1.3 c0,0.5-0.2,1.1-1.2,1.1c-0.8,0-1.3-0.6-1.3-1.6c0-0.9,0.6-1.6,1.4-1.6s1,0.4,1,0.4h1.6c-0.1-0.8-1-1.7-2.6-1.7 c-1.2,0-2.1,0.5-2.6,1.3v-1.2h-4.5v2.8c-0.2-0.5-0.6-0.7-1-0.9c-0.6-0.2-1.6-0.4-2.3-0.6c-0.7-0.1-0.8-0.3-0.8-0.5 c0-0.2,0.2-0.5,0.9-0.5c0.9,0,1,0.6,1,0.6h1.8c-0.1-0.9-0.7-1.8-2.8-1.8c-2.5,0-2.9,1.3-2.9,1.9c0,0.5,0.2,1.1,0.9,1.4 c0.6,0.3,1.9,0.6,2.5,0.7s0.8,0.3,0.8,0.6c0,0.3-0.3,0.6-1.2,0.6c-1.1,0-1.2-0.7-1.2-0.7h-1.9c0,1,0.8,2,3.1,2 c1.7,0,2.7-0.6,3-1.4v1.2h4.5v-1.1c0.5,0.7,1.3,1.2,2.5,1.2c1.1,0,1.8-0.4,2.2-0.9l-0.3,0.7h1.8l0.4-1h2.3l0.4,1h1.8L215,17 c0.4,0.5,1.2,0.9,2.5,0.9c1.6,0,2.3-0.6,2.7-1.1c0.2,0.8,1,1.1,1.7,1.1c0.8,0,1.5-0.2,1.8-0.7c0,0,0.1,0.3,0.3,0.5h3.7 c0,0,0-2.7,0-3.2c0-0.5,0.3-0.8,0.7-0.8c0.4,0,0.8,0.2,0.8,0.8v3.2h1.8c0,0,0-2.7,0-3.2c0-0.5,0.3-0.8,0.7-0.8 c0.4,0,0.8,0.2,0.8,0.8v3.2h1.8c0,0,0-2.7,0-3.2c0-0.5,0.3-0.8,0.7-0.8s0.8,0.2,0.8,0.8v3.2h1.8c0,0,0-2.7,0-3.2 c0-0.5,0.3-0.8,0.7-0.8c0.4,0,0.8,0.2,0.8,0.8v3.2h1.8v-3.4c0-0.3,0-0.5-0.1-0.7h0l1.8,4.6c0.1,0.3,0.1,0.8-0.6,0.8h-0.7 l-0.6,1.4c0,0,0.8,0,1.4,0c0.6,0,1.7,0,2.3-1.7l2.1-6.2H244.8z M204.3,16.5h-2.7v-0.9h1.9v-1.1h-1.9v-0.9h2.7 c-0.2,0.4-0.4,0.9-0.4,1.4C203.9,15.5,204,16,204.3,16.5z M211.3,15.5l0.7-2.1l0.7,2.1H211.3z M223.6,15.8c0,0.3-0.2,0.9-1,0.9 c-0.4,0-0.6-0.3-0.6-0.5c0-0.2,0.1-0.4,0.4-0.5c0.3-0.1,0.8-0.2,1.2-0.4V15.8z"></path>
          </g>
        </g>
      </g>
    </g>
  </g>
  <g id="forground">
    <text transform="matrix(1 0 0 1 17.0074 53.9493)" class="st47 st48 st49 st50" data-uuid="foobarbaz">鈴木 あゆみ</text>
    <g>
      <g>
        <g>
          <text transform="matrix(1 0 0 1 16.2986 108.1621)" class="st51 st48 st52">〒141-0033 東京都品川区西品川一丁目１番１号 住友不動産大崎ガーデンタワー8F</text>
          <text transform="matrix(1 0 0 1 16.9031 116.1621)" class="st51 st48 st52">セガサミーグループ本社 “GRAND HARBOR”</text>
          <text transform="matrix(1 0 0 1 17.0242 124.1621)" class="st51 st48 st52">Tel 03-6864-3332 Fax 050-3153-7987</text>
          <text transform="matrix(1 0 0 1 17.0242 132.1621)" class="st51 st48 st52">https://www.segasammy.co.jp</text>
        </g>
      </g>
    </g>
    <g>
      <path class="st47" d="M20.2,96.8c-0.8,0-0.9-0.1-0.9-0.7v-2.3l2.8-0.2c-0.1,0.7-0.6,1.2-1.4,1.6l0.5,0.6c1.2-0.7,1.7-1.5,1.8-3 L19.4,93v-1.3h-0.8v1.4l-1.5,0.1l0.1,0.7l1.5-0.1v2.3c0,1,0.3,1.4,1.5,1.4h1.7c0.3,0,0.9,0,1.2-0.1v-0.8c-0.5,0.1-1.1,0.1-1.2,0.1 H20.2z"></path>
      <path class="st47" d="M29.4,93v0.9c0,0.3-0.1,2.3-0.3,2.9c-0.2,0.6-0.6,0.7-1.1,0.7c-0.5,0-0.9-0.1-1.2-0.1l0-0.8 c0.3,0,0.8,0.1,1.1,0.1c0.4,0,0.5-0.1,0.6-0.9c0-0.4,0.1-1.5,0.1-1.8v-0.4h-1.9c-0.3,1.7-0.9,2.9-2.3,3.8L23.8,97 c1.5-0.8,1.9-1.9,2.1-3.3h-1.8V93H26c0-0.6,0.1-0.9,0.1-1.2l0.8,0c0,0.6,0,0.8-0.1,1.2H29.4z M28.4,92.8c-0.1-0.5-0.2-0.7-0.3-1.1 l0.6-0.1c0.1,0.2,0.2,0.6,0.3,1.1L28.4,92.8z M29.4,92.7c-0.1-0.3-0.2-0.7-0.4-1.1l0.6-0.1c0.2,0.4,0.2,0.6,0.4,1.1L29.4,92.7z"></path>
      <path class="st47" d="M36.8,93h-1.2v-1.3h-0.8V93h-2.3v-1.3h-0.8V93h-1.2v0.7h1.2v1.8h0.8v-1.8h2.3v0.6c0,1.8-0.9,2.3-2.7,2.6 l0.3,0.7c1.2-0.2,3.1-0.7,3.1-3.3v-0.6h1.2V93z"></path>
      <path class="st47" d="M42.3,93.3c-0.6-0.2-2.1-0.6-4.5-0.8l0.2-0.7c1.5,0,3,0.2,4.5,0.6L42.3,93.3z M41.8,95.2 c-1.5-0.5-2.6-0.7-4-0.8l0.2-0.7c1.9,0.1,2.9,0.3,4.1,0.7L41.8,95.2z M42.6,97.7c-2-0.8-3.7-0.9-5.2-1l0.2-0.7 c2.1,0,3.6,0.4,5.3,0.9L42.6,97.7z"></path>
      <path class="st47" d="M52.7,91.8v1.1h2.4v0.7h-2.4v4h-0.8v-4h-2.4v-0.7h2.4v-1.1H52.7z M49.3,96.8c0.4-0.3,1-0.9,1.1-2.5l0.7,0.1 c-0.2,1.7-0.7,2.4-1.2,3L49.3,96.8z M54.2,94.2c0.2,1.3,0.4,1.9,1.1,2.6l-0.7,0.5c-0.7-1-1-1.7-1.1-2.9L54.2,94.2z"></path>
      <rect x="55.7" y="94.2" class="st47" width="5.2" height="0.8"></rect>
      <rect x="43.5" y="94.2" class="st47" width="5.2" height="0.8"></rect>
      <path class="st47" d="M63,93.7c0,1.5-0.2,3-1.3,4l-0.6-0.6c0.9-0.6,1.1-1.9,1.1-3.3V92H63V93.7z M64.8,96.6c1.5-0.4,1.9-2.1,2-2.6 l0.7,0.3c-0.6,3-2.8,3.2-3.4,3.2v-5.7h0.8V96.6z"></path>
      <path class="st47" d="M72.6,92.7h-4V92h4V92.7z M72.9,92.7c0-0.4-0.1-0.6-0.2-1.1l0.5-0.1c0.1,0.4,0.2,0.7,0.2,1.1L72.9,92.7z M73.8,93.7v0.7h-2.2l0,0.2c0,0.6-0.1,1.3-0.8,2c-0.6,0.6-1.4,0.8-2.1,0.9l-0.3-0.7c1.3-0.2,2.3-0.6,2.3-2.3l0-0.2h-2.6v-0.7H73.8 z M73.7,92.5c0-0.4-0.1-0.8-0.2-1l0.5-0.1c0.1,0.2,0.1,0.4,0.2,1L73.7,92.5z"></path>
      <path class="st47" d="M76.9,97.7h-0.7v-2.4c-1,0.6-1.7,0.8-2,0.9l-0.3-0.6c1.5-0.5,2.9-1.3,3.9-2.7l0.6,0.5 c-0.2,0.3-0.7,0.8-1.5,1.4V97.7z"></path>
      <path class="st47" d="M81.1,93.8c-0.5-0.4-1.3-0.8-2-1l0.4-0.7c0.6,0.2,1.2,0.4,2.1,0.9L81.1,93.8z M79.1,96.6 c2.3-0.2,3.9-1,4.9-4l0.8,0.3c-1,3-2.5,4.2-5.4,4.5L79.1,96.6z"></path>
      <path class="st47" d="M85.1,94.3c1.3-0.7,1.8-1.7,2.1-2.6l0.8,0.1c-0.1,0.3-0.2,0.5-0.4,0.9h2.9c-0.6,4.1-3.6,4.7-4.7,4.9 l-0.3-0.7c2.2-0.3,3.5-1.2,4.1-3.5h-2.4c-0.6,0.9-1.3,1.2-1.6,1.4L85.1,94.3z M89.6,92.5c-0.2-0.5-0.2-0.7-0.3-1l0.5-0.1 c0.1,0.1,0.2,0.4,0.4,1L89.6,92.5z M90.6,92.5c-0.1-0.5-0.3-0.8-0.4-1l0.5-0.1c0.1,0.2,0.2,0.5,0.4,1L90.6,92.5z"></path>
      <path class="st47" d="M91.5,96.9c1.5-0.5,3.2-2,3.9-4.1h-3.5v-0.7h4.5c-0.1,0.4-0.3,1.5-1.3,2.8c0.4,0.3,1.4,1.1,2.3,2l-0.6,0.6 c-0.3-0.3-0.8-0.9-2.1-2.1c-0.5,0.5-1.4,1.5-2.7,2L91.5,96.9z"></path>
      <path class="st47" d="M101.4,93.2c-0.2,0.4-0.3,0.7-0.4,0.9l-0.7-0.4c0.1-0.1,0.1-0.1,0.2-0.3h-0.8v0.6c0.2,0.4,0.6,0.8,0.9,1.1 l-0.4,0.6c-0.2-0.2-0.3-0.5-0.5-0.8h0v2.9H99v-3.1h0c-0.2,0.5-0.4,1.1-0.8,1.7l-0.3-0.8c0.5-0.6,0.8-1.4,1-2.2H98v-0.7h1v-1.2h0.6 v1.2h0.8v0.7h0c0.2-0.3,0.4-0.7,0.6-1.7l0.7,0.1c0,0.2-0.1,0.4-0.2,0.7h0.5v-1h0.7v1h1.4v0.7h-1.4v0.9h1.6v0.7H103 c0.5,0.9,0.8,1.3,1.5,1.8l-0.4,0.7c-0.3-0.2-0.9-0.8-1.3-1.7h0v2.2h-0.7v-2.2h0c-0.4,0.7-0.8,1.2-1.5,1.7l-0.4-0.6 c0.6-0.4,1.3-1,1.8-1.8h-1.5v-0.7h1.7v-0.9H101.4z"></path>
      <path class="st47" d="M110.4,92.6h0.7v0.7h-2c0,1.2,0.3,2.4,0.5,2.9c0.1,0.2,0.4,0.8,0.6,0.8c0.2,0,0.4-0.8,0.4-1l0.6,0.4 c-0.1,0.5-0.3,1.5-0.9,1.5c-0.7,0-1.1-0.8-1.3-1.1c-0.6-1.1-0.6-2.4-0.7-3.5h-3.6v-0.7h3.6c0-0.4,0-1,0-1.1h0.7c0,0.3,0,0.6,0,1.1 h1.2v0c-0.4-0.3-0.7-0.4-1-0.6l0.4-0.5c0.5,0.3,0.5,0.3,1.1,0.6L110.4,92.6z M104.8,96.9c0.2,0,0.2,0,0.3,0c0.2,0,0.9-0.1,1.1-0.1 v-2H105v-0.7h3.3v0.7H107v1.9c0.8-0.1,1.2-0.2,1.5-0.2V97c-1.1,0.2-2.7,0.5-3.5,0.6L104.8,96.9z"></path>
      <path class="st47" d="M113.5,93.3L113.5,93.3c0.8-0.5,1.1-1,1.4-1.3c0.4,0.5,0.9,0.9,1.4,1.3v0H113.5z M117.7,97.5 c-0.6-0.9-1.3-1.7-1.6-1.9l-0.6,0.4c0.2,0.2,0.4,0.4,0.8,1c-1,0.1-1.4,0.1-2.8,0.1c0.2-0.4,0.4-0.8,0.7-1.6h3.5v-0.7h-6.1v0.7h1.7 c-0.2,0.6-0.4,1.2-0.6,1.6c-0.3,0-0.8,0-1,0l0.1,0.7c1,0,1.3,0,4.8-0.3c0.2,0.3,0.2,0.3,0.3,0.5L117.7,97.5z M113.1,94h3.6v-0.4 c0.4,0.3,0.8,0.5,1.1,0.6l0.4-0.7c-1.3-0.5-2.4-1.3-2.9-2.1h-0.8c-0.6,0.9-1.8,1.7-2.9,2.1l0.4,0.6c0.3-0.1,0.6-0.3,1.1-0.6V94z"></path>
      <path class="st47" d="M120.2,97.8h-0.7v-2.6c-0.4,0.4-0.6,0.5-0.8,0.6l-0.3-0.7c0.9-0.5,1.5-1.2,1.8-2h-1.7v-0.7h1v-1.1h0.7v1.1 h0.8v0.7c0,0.1-0.5,1-0.7,1.1c0.3,0.4,0.5,0.5,0.9,0.8l-0.3,0.6c-0.3-0.3-0.5-0.4-0.7-0.7V97.8z M122.5,91.5h0.7v1.9h1.4v0.7h-1.4 v2.8h1.6v0.7h-4v-0.7h1.7v-2.8h-1.4v-0.7h1.4V91.5z"></path>
    </g>
    <g>
      <g>
        <text transform="matrix(1 0 0 1 17.0074 26.7038)" class="st51 st48 st52">総務人事本部</text>
        <text transform="matrix(1 0 0 1 17.0074 33.7038)" class="st51 st48 st52">健康管理センター</text>
      </g>
    </g>
  </g>
</svg>
